<svg width="44" height="44" viewBox="0 0 44 44" fill="none" xmlns="http://www.w3.org/2000/svg" role="img" aria-label="Lanky Services logo">
  <defs>
    <linearGradient id="lg" x1="0" y1="0" x2="1" y2="1">
      <stop offset="0" stop-color="#9ee23f"/>
      <stop offset="1" stop-color="#2fd0ef"/>
    </linearGradient>
  </defs>
  <rect x="1.25" y="1.25" width="41.5" height="41.5" rx="12" fill="#0b120c" stroke="url(#lg)" stroke-width="1.6"/>
  <!-- wheelie bin, clean geometric -->
  <path d="M14.5 17.5h15l-1.15 12.2a2.2 2.2 0 0 1-2.19 2H17.84a2.2 2.2 0 0 1-2.19-2L14.5 17.5Z" fill="#f4f8f2"/>
  <rect x="13" y="14" width="18" height="3.4" rx="1.7" fill="url(#lg)"/>
  <path d="M19 12.4c0-.66.53-1.2 1.2-1.2h3.6c.66 0 1.2.54 1.2 1.2v1.6h-6v-1.6Z" fill="url(#lg)"/>
  <!-- recycle chevrons -->
  <g fill="#0b120c">
    <path d="M22 20.4l1.7 3h-1v2h-1.4v-2h-1L22 20.4Z"/>
  </g>
  <!-- leaf accent -->
  <path d="M29.6 19.2c1.5-.15 2.7.2 3.4.95-.55 1.25-1.6 1.9-3.1 2 .1-1 -.1 -2 -.3 -2.95Z" fill="#9ee23f"/>
</svg>
